<svg xmlns="http://www.w3.org/2000/svg" width="40" height="31" viewBox="0 0 40 31"><g><g><g><g><path fill="#f68f16" d="M35.813 30.642c.872 0 1.627-.288 2.27-.856l-10.99-10.99c-.264.188-.52.372-.76.547a50.64 50.64 0 0 1-2.003 1.417c-.513.34-1.195.686-2.046 1.04-.851.353-1.645.53-2.381.53h-.043c-.736 0-1.53-.177-2.381-.53-.852-.354-1.534-.7-2.046-1.04a50.948 50.948 0 0 1-2.002-1.417c-.23-.168-.484-.353-.759-.55L1.68 29.786a3.316 3.316 0 0 0 2.27.856z"/></g><g><path fill="#f68f16" d="M2.673 11.875A11.477 11.477 0 0 1 .487 9.992v16.72l9.686-9.686a749.292 749.292 0 0 0-7.5-5.15z"/></g><g><path fill="#f68f16" d="M37.112 11.875a638.518 638.518 0 0 0-7.518 5.155l9.683 9.683V9.992c-.621.693-1.343 1.32-2.165 1.883z"/></g><g><path fill="#f68f16" d="M35.813.164H3.95C2.84.164 1.984.54 1.385 1.29.786 2.04.487 2.978.487 4.104c0 .909.397 1.894 1.19 2.955.794 1.06 1.638 1.893 2.533 2.5.49.346 1.97 1.374 4.438 3.084a1435.11 1435.11 0 0 1 5.67 3.95c.07.05.18.127.324.231l.597.43c.469.34.859.613 1.169.823.31.21.685.443 1.126.703.44.26.855.455 1.244.585.39.13.75.195 1.083.195h.043c.332 0 .692-.066 1.082-.195.39-.13.804-.325 1.245-.585.44-.26.815-.494 1.126-.703.31-.21.7-.484 1.169-.823a144.44 144.44 0 0 1 .92-.66l2.19-1.523 7.94-5.513a10.296 10.296 0 0 0 2.64-2.662c.707-1.038 1.06-2.128 1.06-3.268 0-.953-.343-1.768-1.027-2.446C37.563.504 36.75.164 35.813.164z"/></g></g></g></g></svg>