<svg xmlns="http://www.w3.org/2000/svg" width="18" height="14" viewBox="0 0 18 14"><g><g><g><g><path fill="#fff" d="M1.574 4.197c.22.154.88.614 1.983 1.378 1.102.763 1.946 1.352 2.533 1.764.065.045.201.144.41.295.21.152.385.274.523.368.139.093.306.198.503.314.197.116.382.203.556.26.174.059.335.088.483.088h.02c.148 0 .31-.03.483-.087a2.92 2.92 0 0 0 .556-.261c.197-.116.365-.221.503-.314.139-.094.313-.216.522-.368.21-.152.347-.25.411-.295l4.526-3.143c.47-.328.863-.725 1.18-1.189.315-.464.473-.95.473-1.46 0-.425-.153-.79-.46-1.093A1.495 1.495 0 0 0 15.693 0H1.458C.962 0 .58.168.312.503c-.267.335-.4.754-.4 1.257 0 .406.177.846.531 1.32.354.474.732.846 1.131 1.117z"/></g><g><path fill="#fff" d="M16.272 5.231c-2.114 1.431-3.72 2.543-4.815 3.336-.368.27-.666.482-.895.634a5.52 5.52 0 0 1-.913.464c-.38.158-.735.237-1.064.237h-.02c-.328 0-.683-.08-1.063-.237a5.523 5.523 0 0 1-.914-.464 22.926 22.926 0 0 1-.894-.634c-.87-.638-2.472-1.75-4.806-3.336A5.122 5.122 0 0 1-.09 4.39v7.677c0 .426.152.79.455 1.093a1.49 1.49 0 0 0 1.092.455h14.234c.426 0 .79-.152 1.093-.455a1.49 1.49 0 0 0 .454-1.093V4.39c-.277.31-.6.59-.967.841z"/></g></g></g></g></svg>