<svg xmlns="http://www.w3.org/2000/svg" width="17" height="17" viewBox="0 0 17 17"><g><g><g><g><g><path fill="#fff" d="M16.656 13.446l-2.631-2.631c-.524-.522-1.392-.507-1.935.036l-1.325 1.325-.262-.145c-.837-.464-1.983-1.1-3.188-2.306-1.21-1.21-1.846-2.357-2.311-3.195l-.143-.255.89-.889.437-.438c.543-.543.558-1.41.035-1.934L3.593.382C3.068-.141 2.2-.125 1.657.418l-.742.746.02.02a4.289 4.289 0 0 0-.61 1.078 4.47 4.47 0 0 0-.273 1.093c-.347 2.88.97 5.513 4.541 9.086 4.938 4.937 8.918 4.564 9.09 4.546a4.446 4.446 0 0 0 1.096-.275c.39-.153.757-.36 1.074-.609l.016.014.751-.735c.542-.543.558-1.411.035-1.936z"/></g></g></g></g></g></svg>