<svg xmlns="http://www.w3.org/2000/svg" width="42" height="42" viewBox="0 0 42 42"><g><g><path fill="#f68f16" d="M40.985 33.241l-6.347-6.347c-1.264-1.26-3.358-1.22-4.666.088l-3.197 3.197a93.289 93.289 0 0 1-.631-.351c-2.02-1.12-4.783-2.653-7.691-5.563-2.917-2.916-4.452-5.684-5.574-7.705-.118-.214-.232-.42-.344-.616l2.146-2.143 1.055-1.056c1.31-1.31 1.346-3.404.085-4.666L9.475 1.73C8.213.47 6.119.508 4.809 1.818l-1.789 1.8.049.048c-.6.765-1.101 1.648-1.474 2.6-.344.906-.558 1.77-.656 2.637C.101 15.85 3.276 22.2 11.892 30.816c11.91 11.91 21.508 11.01 21.922 10.966a10.724 10.724 0 0 0 2.644-.665c.944-.368 1.826-.869 2.59-1.467l.04.034L40.9 37.91c1.308-1.31 1.345-3.404.085-4.669z"/></g></g></svg>