<svg xmlns="http://www.w3.org/2000/svg" width="16" height="16" viewBox="0 0 16 16"><g><g><g><path fill="#9fafbc" d="M7.957.462h-.003C3.822.462.462 3.823.462 7.956c0 1.639.529 3.158 1.427 4.391l-.934 2.784 2.88-.92a7.428 7.428 0 0 0 4.122 1.238c4.132 0 7.492-3.362 7.492-7.493 0-4.132-3.36-7.494-7.492-7.494z"/></g><g><path fill="#394753" d="M12.317 11.044c-.18.51-.898.934-1.47 1.057-.392.084-.903.15-2.625-.564-2.202-.912-3.62-3.15-3.73-3.295-.106-.145-.89-1.184-.89-2.26 0-1.075.546-1.599.766-1.823.18-.185.48-.27.766-.27.093 0 .176.005.251.01.22.009.331.022.476.37.18.435.621 1.51.674 1.62.053.111.106.26.031.406-.07.15-.132.216-.242.344-.11.127-.216.225-.326.361-.101.12-.216.247-.088.467.127.215.567.934 1.216 1.51.836.745 1.514.983 1.757 1.084.18.075.396.057.528-.083.168-.18.375-.48.585-.776.15-.211.34-.238.538-.163.202.07 1.273.6 1.493.71.22.11.365.162.419.255.052.093.052.528-.129 1.04z"/></g></g></g></svg>