<svg xmlns="http://www.w3.org/2000/svg" width="17" height="18" viewBox="0 0 17 18"><g><g><g><path fill="#9fafbc" d="M5.082 17.283c-.175.181-.368.165-.365-.195 0-.236.013-2.937.013-2.937-3.373-.967-3.174-4.603-3.138-6.506.037-1.903.385-3.461 1.412-4.51C5.372.913 12.054 1.41 13.757 3.01c2.082 1.845 1.34 7.058 1.345 7.236-.428 3.565-2.95 3.79-3.413 3.945-.198.066-2.037.539-4.347.385-.001.001-1.724 2.15-2.26 2.707zm11.21-6.713c.523-4.408-.252-7.19-1.65-8.45-2.257-2.15-9.879-2.467-12.579.097C.851 3.47.423 5.312.377 7.59.33 9.87.274 14.14 4.254 15.299h.003l-.003 1.769s-.028.717.43.86c.524.17.76-.162 2.39-2.108 2.723.237 4.815-.305 5.052-.384.55-.184 3.662-.596 4.165-4.866z"/></g><g><path fill="#9fafbc" d="M8.296 3.552c-.282 0-.282.439 0 .443 2.184.016 3.983 1.539 4.003 4.332 0 .295.431.291.428-.004-.024-3.01-1.989-4.754-4.431-4.77z"/></g><g><path fill="#9fafbc" d="M11.17 7.864c-.008.291.423.305.427.01.036-1.66-.987-3.026-2.91-3.17-.282-.02-.31.422-.03.442 1.667.127 2.546 1.265 2.512 2.718z"/></g><g><path fill="#9fafbc" d="M10.708 9.752c-.361-.21-.729-.08-.88.126l-.32.412c-.16.21-.463.181-.463.181-2.204-.583-2.793-2.89-2.793-2.89s-.028-.311.174-.479l.398-.33c.2-.157.325-.537.122-.911-.54-.978-.904-1.315-1.09-1.574-.194-.243-.486-.298-.79-.134h-.007c-.633.37-1.325 1.063-1.104 1.776.378.752 1.073 3.148 3.287 4.96 1.041.856 2.688 1.733 3.387 1.936l.007.01c.689.23 1.359-.49 1.716-1.142v-.005c.16-.315.106-.613-.125-.809-.411-.4-1.032-.843-1.519-1.127z"/></g><g><path fill="#9fafbc" d="M8.988 6.336c.703.041 1.044.408 1.08 1.162.014.295.441.275.428-.02-.047-.984-.56-1.533-1.484-1.584-.282-.017-.308.425-.024.442z"/></g></g></g></svg>