<svg xmlns="http://www.w3.org/2000/svg" width="17" height="17" viewBox="0 0 17 17"><g><g><g><path fill="#9fafbc" d="M14.942 11.567c-.035.805-.17 1.24-.283 1.529a2.732 2.732 0 0 1-1.564 1.563c-.29.113-.727.248-1.528.284-.869.038-1.13.048-3.327.048s-2.461-.01-3.327-.048c-.804-.036-1.239-.17-1.528-.284a2.534 2.534 0 0 1-.946-.614 2.56 2.56 0 0 1-.615-.946c-.112-.29-.247-.727-.283-1.528-.039-.87-.048-1.13-.048-3.327 0-2.198.01-2.462.048-3.327.036-.805.17-1.24.283-1.529.132-.357.341-.682.618-.946.267-.273.589-.482.946-.614.29-.113.727-.248 1.528-.283.87-.04 1.13-.049 3.327-.049 2.201 0 2.462.01 3.327.049.805.035 1.24.17 1.529.283.357.132.682.34.946.614.273.267.482.589.614.946.113.29.248.727.283 1.529.039.868.049 1.129.049 3.327 0 2.197-.01 2.455-.049 3.323zm1.484-6.724c-.039-.876-.18-1.477-.383-1.999a4.02 4.02 0 0 0-.953-1.46 4.053 4.053 0 0 0-1.457-.95C13.108.232 12.51.09 11.635.052 10.753.01 10.473 0 8.237 0S5.72.01 4.842.048c-.875.039-1.477.18-1.998.383-.553.21-1.049.531-1.46.953-.419.411-.744.91-.95 1.457C.231 3.366.09 3.964.051 4.84.01 5.721 0 6.001 0 8.237s.01 2.516.048 3.395c.039.875.18 1.477.383 1.998.21.553.534 1.049.952 1.46.412.419.911.744 1.458.95.524.203 1.123.344 1.998.383.878.038 1.159.048 3.395.048 2.236 0 2.516-.01 3.394-.048.875-.039 1.477-.18 1.998-.383a4.213 4.213 0 0 0 2.41-2.41c.203-.525.345-1.123.383-1.998.039-.879.049-1.159.049-3.395 0-2.236-.004-2.516-.042-3.394z"/></g><g><path fill="#9fafbc" d="M8.237 10.982a2.745 2.745 0 1 1 0-5.49 2.745 2.745 0 0 1 0 5.49zm0-6.976a4.232 4.232 0 0 0 0 8.462 4.232 4.232 0 0 0 0-8.462z"/></g><g><path fill="#9fafbc" d="M13.623 3.839a.988.988 0 1 1-1.975 0 .988.988 0 0 1 1.975 0z"/></g></g></g></svg>