<svg xmlns="http://www.w3.org/2000/svg" width="18" height="11" viewBox="0 0 18 11"><g><g><g><g><g><path fill="#919fab" d="M15.384 4.395V2.198h-1.099v2.197h-2.197v1.1h2.197v2.197h1.1V5.494h2.197V4.395z"/></g></g></g><g><g><g><path fill="#919fab" d="M5.494 4.396v2.197h3.11a3.303 3.303 0 0 1-3.11 2.198 3.3 3.3 0 0 1-3.296-3.297 3.3 3.3 0 0 1 3.296-3.296c.788 0 1.547.282 2.135.795l1.444-1.657A5.445 5.445 0 0 0 5.494 0 5.5 5.5 0 0 0 0 5.494a5.5 5.5 0 0 0 5.494 5.495 5.5 5.5 0 0 0 5.495-5.495V4.396z"/></g></g></g></g></g></svg>