<svg xmlns="http://www.w3.org/2000/svg" width="13" height="19" viewBox="0 0 13 19"><g><g><g><g><g><path fill="#919fab" d="M6.372 6.831a2.28 2.28 0 0 1-2.277-2.277 2.28 2.28 0 0 1 2.277-2.277 2.28 2.28 0 0 1 2.277 2.277 2.28 2.28 0 0 1-2.277 2.277zm0-6.831a4.559 4.559 0 0 0-4.554 4.554 4.559 4.559 0 0 0 4.554 4.554 4.559 4.559 0 0 0 4.554-4.554A4.559 4.559 0 0 0 6.372 0z"/></g></g></g><g><g><g><path fill="#919fab" d="M12.41 8.982a1.137 1.137 0 0 0-1.61 0 6.271 6.271 0 0 1-8.856 0 1.139 1.139 0 1 0-1.61 1.611 8.487 8.487 0 0 0 5.063 2.434l-3.246 3.246a1.137 1.137 0 1 0 1.61 1.61l2.61-2.61 2.611 2.61a1.135 1.135 0 0 0 1.61 0 1.137 1.137 0 0 0 0-1.61l-3.246-3.246a8.487 8.487 0 0 0 5.063-2.434 1.14 1.14 0 0 0 .002-1.611z"/></g></g></g></g></g></svg>